<?xml version="1.0" encoding="utf-8"?>
<svg version="1.1" xmlns="http://www.w3.org/2000/svg" xmlns:xlink="http://www.w3.org/1999/xlink" viewBox="0 0 1084 136.1" style="enable-background:new 0 0 1084 136.1;" width="1084" height="136.1" xml:space="preserve" fill="#000000">
<path d="M379.9,42.8c-2.7-3.5-6.2-6.1-10.4-8C365.2,33,360,32,354,32c-7,0-13.1,1.4-18.2,4.2 c-5.1,2.8-9.1,6.7-11.9,11.9V34.3h-22v99.4h22V80.8c0-4.4,0.4-8.6,1.2-12.4c0.8-3.8,2.1-7.1,4-9.8s4.2-4.8,7.2-6.4 S342.8,50,347,50s7.5,0.7,10.1,2.2c2.5,1.5,4.4,3.5,5.7,6c1.3,2.5,2.1,5.4,2.5,8.6s0.5,6.5,0.5,9.8v57.1h22V71.2 c0-5.9-0.6-11.3-1.9-16.1C384.6,50.4,382.6,46.2,379.9,42.8L379.9,42.8z"/>
<path d="M589.9,87.3c0,4.4-0.4,8.6-1.2,12.4s-2.1,7.1-3.8,9.8c-1.7,2.7-4,4.8-6.9,6.4c-2.9,1.5-6.4,2.3-10.4,2.3 s-7.3-0.7-9.8-2.2c-2.5-1.5-4.3-3.5-5.5-6s-2-5.4-2.4-8.6s-0.5-6.5-0.5-9.8V34.3h-22v62.6c0,5.9,0.6,11.3,1.8,16.1 s3.2,8.9,5.9,12.4c2.7,3.5,6.2,6.1,10.3,8s9.2,2.8,15.2,2.8c6.8,0,12.7-1.4,17.7-4.2c5-2.8,8.9-6.7,11.7-11.9v13.7h22V34.3h-22 L589.9,87.3L589.9,87.3z"/>
<path d="M709.8,48.7c-4.1-5.2-9.2-9.2-15.3-12.2c-6.1-3-13-4.4-20.6-4.4c-7,0-13.5,1.3-19.5,3.8 c-6,2.5-11.2,6.1-15.5,10.6s-7.8,10-10.2,16.2c-2.4,6.2-3.6,13.1-3.6,20.6s1.1,13.9,3.3,20.3c2.2,6.4,5.5,12,9.8,16.8 c4.3,4.8,9.6,8.6,15.8,11.5c6.2,2.8,13.3,4.2,21.3,4.2c6.4,0,12.1-0.9,17.2-2.8c5-1.9,9.5-4.3,13.2-7.3c3.8-3,6.9-6.5,9.3-10.3 s4.2-7.8,5.4-11.7h-21.6c-2,4.7-5.1,8.2-9.3,10.4s-9.3,3.4-15.1,3.4c-3.2,0-6.3-0.6-9.3-1.7s-5.8-2.8-8.3-5.2 c-2.5-2.3-4.6-5.2-6.3-8.6c-1.7-3.4-2.7-7.4-3-12.1h74.1c0.5-8.4-0.3-16.1-2.4-23.2S713.9,53.9,709.8,48.7L709.8,48.7z M647.4,74.2c0.5-4.7,1.7-8.6,3.5-11.8c1.8-3.2,4-5.8,6.6-7.7c2.5-1.9,5.2-3.3,8.1-4.2c2.9-0.9,5.6-1.3,8.2-1.3 c3.2,0,6.3,0.6,9.3,1.8s5.7,2.8,8,4.9c2.3,2.1,4.2,4.7,5.6,7.8c1.5,3.1,2.3,6.6,2.4,10.4L647.4,74.2L647.4,74.2z"/>
<path d="M865.2,8h-22v26.2h-14.6v15.9h14.6v57.5c0,5.1,0.3,9.3,1,12.7s1.9,6.1,3.8,8c1.8,2,4.4,3.4,7.8,4.2 s7.6,1.2,12.9,1.2H885v-16.8h-8c-4.7,0-7.8-0.8-9.4-2.5c-1.6-1.7-2.4-5-2.4-10.1V50.2h20V34.3h-20L865.2,8L865.2,8z"/>
<path d="M1081.3,91.7c-1.8-3.3-4.3-6.1-7.5-8.4c-3.2-2.3-7-4.1-11.3-5.4c-4.3-1.4-9-2.5-14-3.5l-14.1-2.8 c-4.3-0.9-7.6-2.2-9.9-4.1c-2.3-1.8-3.4-4.4-3.4-7.8s1.9-6,5.6-8c3.8-2,8-3,12.8-3c5.5,0,10.3,1,14.1,2.9s6.4,5.1,7.7,9.7h20.7 c-1-4.9-2.8-9.2-5.4-12.9s-5.7-6.8-9.4-9.2c-3.7-2.5-7.8-4.3-12.4-5.5c-4.6-1.2-9.2-1.8-14-1.8c-5.4,0-10.6,0.7-15.4,2 s-9.2,3.3-12.8,5.8c-3.7,2.5-6.7,5.5-8.9,9s-3.3,7.5-3.3,11.9s0.8,8.5,2.3,11.7c1.5,3.3,3.7,6,6.4,8.3c2.7,2.3,5.9,4.1,9.5,5.5 c3.6,1.4,7.5,2.6,11.7,3.4l15,3c4.9,1,9,2.5,12.3,4.5c3.3,2,4.9,5.1,4.9,9.2s-1.9,7.2-5.6,9.5c-3.8,2.3-8.5,3.4-14.3,3.4 c-6.5,0-11.6-1.4-15.3-4.2c-3.7-2.8-6-6.7-7-11.9h-21.4c0.6,4.7,2.1,9,4.3,13c2.3,4,5.3,7.4,9,10.3c3.7,2.9,8,5.2,13,6.8 c5,1.7,10.6,2.5,16.7,2.5c5.7,0,11-0.7,16.1-2.1c5.1-1.4,9.5-3.5,13.4-6.2c3.9-2.7,7-6.1,9.2-10.1s3.4-8.6,3.4-13.8 C1084,99.1,1083.1,95.1,1081.3,91.7L1081.3,91.7z"/>
<path d="M957.4,114.4L957.4,114.4c-4.2,2.3-9.2,3.4-15,3.4c-3.2,0-6.3-0.5-9.3-1.7c-3-1.1-5.8-2.8-8.3-5.2 c-1.1-1-3-3.1-4.8-5.9c-1.1-1.7-2.1-3.7-3-5.9c-1-2.5-4-3.9-6.1-5.4c-1.2-0.8-2.1-1.7-2.1-2.8c0,0,0-0.1,0-0.1 c0.1-1.3,3-2.4,5.9-3.8c5.5-2.7,13.1-5.7,14.9-8.1c3.1-4.1-3.2-7.4-6.7-11.1c-1.6-1.8-2.5-4-1.5-7.3c0.3-1.1,1.3-2.7,2.9-4.5 c3.5-4,10.2-8.6,20-8.6c3.2,0,6.3,0.6,9.3,1.8c3,1.2,5.7,2.8,7.9,4.9c2.3,2.1,4.2,4.7,5.6,7.8c1.2,2.6,1.9,5.4,2.2,8.4h21.3 c-0.3-1.7-0.7-3.4-1.2-5.1c-2.1-7.1-5.2-13.2-9.3-18.4c-4.1-5.2-9.2-9.2-15.3-12.2c-6.1-3-13-4.4-20.6-4.4 c-7,0-13.5,1.3-19.5,3.8c-3,1.3-5.8,2.8-8.4,4.6c-2.6,1.8-5,3.8-7.1,6.1c-4.4,4.6-7.8,9.9-9.6,16.3c-2.1,7.8,11.2,12.5,10.9,15.5 c-0.2,2-5.9,3.8-11.6,6.2c-4.1,1.8-8.6,3.8-9.9,6.6c-2.2,5,5.4,8,7.2,14.2c0.1,0.3,0.2,0.6,0.3,1c2,6.1,5.4,11.3,9.5,15.9 c4.3,4.8,9.6,8.6,15.8,11.5c6.2,2.8,13.3,4.2,21.3,4.2c6.4,0,12.1-0.9,17.2-2.8c5-1.8,9.5-4.3,13.2-7.3c3.8-3,6.9-6.5,9.3-10.3 s4.2-7.8,5.4-11.7h-21.6C964.8,108.6,961.6,112.1,957.4,114.4z"/>
<rect x="405.8" width="83.9" height="19.6"/>
<polygon points="405.8,68.4 509.3,68.4 509.3,49 405.8,49"/>
<path d="M278.3,67.1c0-22.4-11.7-36.2-39.4-36.2c-25.1,0-41.4,10.9-42.9,33.1h22.3c1-6.4,3.1-15.5,19.1-15.5 c13,0,19,5.5,19,21.3v4.2h-13.7c-33.5,0-50.7,11.9-50.7,31.6c0,21.1,14.3,30.1,34.2,30.1c21.7,0,30.5-15.3,30.5-15.3v13.6h36.2 v-17.2h-14.6L278.3,67.1L278.3,67.1z M256.4,98.7c0,13.6-12.6,20-25.7,20c-11.6,0-15.7-6.7-15.7-14.1c0-11.2,9.9-16.2,28.7-16.2 h12.7C256.4,88.4,256.4,98.7,256.4,98.7z"/>
<polygon points="156,115.8 115.3,115.8 115.3,34.3 93.3,34.3 93.3,133.7 177.9,133.7 177.9,34.3 156,34.3"/>
<polygon points="755.7,97.4 755.7,34.3 733.7,34.3 733.7,133.7 755.7,133.7 797.6,70.4 797.6,133.7 819.6,133.7 819.6,34.3 797.6,34.3"/>
<path d="M53.2,97.3c0,9.8-4.3,17.7-16.1,17.7s-14.9-5.4-14.9-16.5c0-3.2-0.4-12.1-0.4-12.1H0c0,0,0.2,5.9,0.2,13.3 c0,19.1,9.6,35.8,39.1,35.8c19.6,0,35.9-12.1,35.9-39.3v-62h-22C53.2,34.2,53.2,97.3,53.2,97.3z"/>
<path fill="#070EE1" d="M889.1,89.3c1.3-2.8,5.8-4.8,9.9-6.6c5.6-2.5,11.4-4.3,11.6-6.2c0.4-3-13-7.7-10.9-15.5 c1.7-6.4,5.2-11.8,9.6-16.3c2.2-2.3,4.6-4.3,7.1-6.1c-3.8,1.5-12.6,10.6-15.7,15.6l0,0c-3,4.7-5.7,6.2-5.7,9.3 c0,2.5,2.3,3.6,6.8,6.5c4.5,2.9,8.6,4.2,8.6,6.8c0,1.6-10.5,4.2-15.7,6.2c-6.1,2.4-9.7,4.4-9.7,7.1c-0.1,5.9,9.2,9.2,11.6,14.2 c0,0.1,0.1,0.1,0.1,0.2c-0.1-0.3-0.2-0.6-0.3-1C894.5,97.3,886.8,94.3,889.1,89.3z"/>
<path fill="#00FFFF" d="M916.9,99.2c0.9,2.2,1.9,4.2,3,5.9c-0.7-2.5,0.8-6.6-2.1-8.3c-2.3-1.3-5.1-2.1-7-2.9 C912.9,95.3,916,96.7,916.9,99.2z"/>
<path fill="#00FFFF" d="M922.8,67.9c3.5,3.7,9.8,7,6.7,11.1c-1.8,2.4-9.3,5.5-14.9,8.1c-2.9,1.4-5.8,2.5-5.9,3.8 c1-2.3,7.4-4.1,15.2-7c7.3-2.8,11.9-3.5,11.7-6.7c-0.3-4.4-13.5-7.9-13.5-14.6c0-2.2,1.2-4.8,2.1-6.6c-1.6,1.8-2.5,3.4-2.9,4.5 C920.3,63.9,921.2,66.1,922.8,67.9z"/>
</svg>